<?xml version="1.0" encoding="UTF-8"?>
<!DOCTYPE svg PUBLIC "-//W3C//DTD SVG 1.1//EN" "http://www.w3.org/Graphics/SVG/1.1/DTD/svg11.dtd">
<!-- Creator: CorelDRAW 2017 -->
<svg xmlns="http://www.w3.org/2000/svg" xml:space="preserve" width="210mm" height="297mm" version="1.1" style="shape-rendering:geometricPrecision; text-rendering:geometricPrecision; image-rendering:optimizeQuality; fill-rule:evenodd; clip-rule:evenodd"
viewBox="0 0 21000 29700"
 xmlns:xlink="http://www.w3.org/1999/xlink">
 <defs>
  <style type="text/css">
   <![CDATA[
    .fil10 {fill:#405E66}
    .fil5 {fill:#4B707A}
    .fil30 {fill:#4F382A}
    .fil4 {fill:#567C87}
    .fil34 {fill:#576600}
    .fil3 {fill:#60A1A6}
    .fil16 {fill:#687A01}
    .fil31 {fill:#6E4A34}
    .fil2 {fill:#6FAEB3}
    .fil36 {fill:#819608}
    .fil20 {fill:#823404}
    .fil15 {fill:#94AB13}
    .fil18 {fill:#9E4208}
    .fil32 {fill:#A65E15}
    .fil23 {fill:#B5A7A3}
    .fil13 {fill:#BAD526}
    .fil0 {fill:#BAEFFF}
    .fil24 {fill:#C75C1A}
    .fil35 {fill:#C98300}
    .fil11 {fill:#CDE831}
    .fil1 {fill:#CFF4FF}
    .fil21 {fill:#D6CBC7}
    .fil12 {fill:#D9ED66}
    .fil19 {fill:#DB6A23}
    .fil33 {fill:#E39400}
    .fil14 {fill:#E7F2AC}
    .fil17 {fill:#FFB429}
    .fil37 {fill:#FFBB00}
    .fil9 {fill:#FFE940}
    .fil8 {fill:white}
    .fil7 {fill:white}
    .fil25 {fill:#823404;fill-rule:nonzero}
    .fil29 {fill:#A8490D;fill-rule:nonzero}
    .fil28 {fill:#C75C1A;fill-rule:nonzero}
    .fil6 {fill:#CFF4FF;fill-rule:nonzero}
    .fil27 {fill:#E07938;fill-rule:nonzero}
    .fil26 {fill:#F28D4E;fill-rule:nonzero}
    .fil22 {fill:white;fill-rule:nonzero}
    .fil38 {fill:#FFFBDB;fill-opacity:0.380392}
   ]]>
  </style>
 </defs>
 <g id="Layer_x0020_1">
  <metadata id="CorelCorpID_0Corel-Layer"/>
  <polygon class="fil0" points="2408.38,3798.18 18408.38,3798.18 18408.38,15798.19 2408.38,15798.19 "/>
  <polygon class="fil1" points="2408.38,7461.73 18408.38,7461.73 18408.38,10143.41 2408.38,10143.41 "/>
  <path class="fil2" d="M2408.38 8500.5l311.22 188.6c786.59,476.66 1687.02,476.65 2473.61,-0.01l1440.52 -872.93c1235.03,-748.41 2640.77,-782.03 3891.14,-100.89 676.41,368.48 1384.49,430.79 2109.92,185.7 976.45,-329.89 2015.32,-212.44 2947.35,352.35l543.91 329.6c707.93,428.99 1518.31,428.99 2226.24,0.01l56.09 -33.99 0 4410.53 -16000 0 0 -4458.97z"/>
  <path class="fil3" d="M2408.38 9124.31l311.22 162.21c786.59,409.98 1687.02,409.97 2473.61,-0.01l1440.52 -750.81c1235.03,-643.7 2640.77,-672.62 3891.14,-86.77 676.41,316.93 1384.49,370.52 2109.92,159.72 976.45,-283.74 2015.32,-182.72 2947.35,303.05l543.91 283.49c707.93,368.98 1518.31,368.98 2226.24,0.01l56.09 -29.23 0 3793.5 -16000 0 0 -3835.16z"/>
  <path class="fil4" d="M18408.38 9203.57l0 4049.69 -16000 436.2 0 -4023.74 435.57 122.5c795.96,223.85 1523.98,235.61 2326.14,37.59 874.09,-215.76 1699.65,-142.28 2540.43,224.78 1661.56,725.38 3461.61,671.18 5102.47,-162.64 1017.19,-516.9 2056.63,-605.15 3139.75,-266.56 749.73,234.37 1542.65,135.45 2255.95,-296.81l199.69 -121.01z"/>
  <path class="fil5" d="M18408.38 9812.08l0 3500.35 -16000 377.03 0 -3477.91 435.57 105.88c795.96,193.48 1523.98,203.64 2326.14,32.49 874.09,-186.5 1699.65,-122.98 2540.43,194.29 1661.56,626.98 3461.61,580.13 5102.47,-140.59 1017.19,-446.78 2056.63,-523.06 3139.75,-230.39 749.73,202.58 1542.65,117.07 2255.95,-256.55l199.69 -104.6z"/>
  <path class="fil6" d="M2408.38 9637.59l441.95 125.58c396.17,111.42 775.2,170.06 1154.65,176.19 379.57,6.13 760.2,-40.24 1159.51,-138.8 439.56,-108.51 867.03,-144.28 1290.34,-106.78 423.28,37.5 842.37,148.3 1265.16,332.87 828.42,361.66 1691.33,528.79 2551.49,501.38 858.35,-27.37 1714.3,-248.5 2530.78,-663.41 511.41,-259.88 1028.51,-412.02 1553.95,-456.63 525.42,-44.59 1059.06,18.32 1603.58,188.55 373.05,116.61 756.92,149.97 1136.18,100.08 376.36,-49.52 748.18,-181 1100.37,-394.4l212.04 -132.06 0 63.32 -187.32 113.51c-358.31,217.07 -736.43,350.8 -1119.09,401.14 -385.92,50.77 -776.6,16.81 -1156.29,-101.89 -538.58,-168.37 -1066.25,-230.61 -1585.61,-186.53 -519.34,44.08 -1030.58,194.54 -1536.36,451.56 -822.69,418.06 -1685.43,640.89 -2550.89,668.47 -867.19,27.64 -1736.96,-140.76 -2571.77,-505.21 -417.96,-182.47 -832.11,-291.98 -1250.28,-329.03 -418.18,-37.05 -840.6,-1.68 -1275.08,105.57 -402.85,99.43 -787.33,146.21 -1171.28,140.01 -384.08,-6.2 -767.09,-65.39 -1166.85,-177.81l-429.18 -120.7 0 -54.98z"/>
  <polygon class="fil1" points="2408.38,4609.63 18408.38,4609.63 18408.38,4785.48 2408.38,4785.48 "/>
  <rect class="fil1" x="2408.38" y="5532.83" width="16000" height="527.54"/>
  <path class="fil7" d="M13499.58 4630.66c101.72,0 177.27,55.37 207.6,138.96 104.84,-169.68 291.81,-290.05 475.49,-290.05 176.34,0 300.25,110.95 327.59,269.95 63.47,-58.77 144.58,-95.93 224.67,-95.93 70.04,0 126.64,28.42 162.54,74.84 90.12,-104.27 219,-173.31 346,-173.31 122.93,0 215.27,64.7 255.52,163.42 31.08,-13.04 63.72,-20.3 96.15,-20.3 109.48,0 179.91,82.6 171.88,191.66l443.3 42.96 -464.78 42.96c-46.48,109.06 -158.21,191.66 -267.68,191.66 -32.44,0 -61.45,-7.26 -86,-20.3 -89.6,98.72 -214.29,163.42 -337.22,163.42 -127,0 -221.37,-69.04 -259.36,-173.31 -59.11,46.42 -129.92,74.84 -199.95,74.84 -80.1,0 -142.64,-37.16 -176.72,-95.93 -106.83,159 -286.2,269.95 -462.54,269.95 -183.68,0 -310.48,-120.37 -330.5,-290.05 -72.11,83.59 -175.34,138.96 -277.06,138.96 -145.14,0 -237,-112.74 -220.2,-259.32l-442.47 -42.88 463.9 -42.88c56.48,-146.58 204.69,-259.32 349.84,-259.32z"/>
  <g id="_2489477572544">
   <path class="fil1" d="M2408.38 3798.18l4161.29 0c-37.82,251.45 -101.05,507.49 -188.65,764.31 -607.01,1779.34 -2260.31,3279.19 -3972.64,3736.83l0 -4501.14z"/>
   <path class="fil8" d="M2408.38 3798.18l3213.07 0c-25.56,224.76 -78.46,455.1 -157.34,686.36 -465.64,1364.93 -1741.47,2513.1 -3055.73,2848.39l0 -3534.75z"/>
   <path class="fil9" d="M2408.38 3798.18l2217.43 0c-14.28,166.51 -51.17,341.48 -112.78,522.06 -320.06,938.22 -1200.94,1726.38 -2104.65,1948.76l0 -2470.82z"/>
  </g>
  <path class="fil7" d="M7147.18 4972.84c56.95,0 107.85,14.73 150.12,40.72 129.97,-162.95 324.22,-270.96 522.22,-270.96 175.99,0 316.93,85.37 394.38,218.77 72.35,-42.87 153.3,-67.72 235.11,-67.72 91.57,0 170.35,31.13 229.11,83.82 136.3,-160.2 332.67,-265.08 532.71,-265.08 302.6,0 506.69,239.95 481.3,548.44l564.33 68.69 -590.13 68.69c-90.51,308.49 -384.74,548.44 -687.34,548.44 -200.04,0 -357.01,-104.87 -433.13,-265.07 -78.55,52.69 -169.03,83.82 -260.6,83.82 -81.81,0 -153.42,-24.85 -209.67,-67.72 -127.56,133.4 -300.57,218.76 -476.57,218.76 -197.99,0 -351.66,-108.01 -420.42,-270.95 -52.03,25.99 -108.46,40.71 -165.42,40.71 -165.18,0 -279.58,-123.71 -279.41,-287.66l-566.99 -69.02 592.92 -69.01c61.43,-163.96 222.3,-287.67 387.48,-287.67z"/>
  <path class="fil7" d="M14637.53 6768.29c21.43,0 39.71,5.26 54.16,14.61 81.76,-97.33 202.17,-164.45 312.12,-164.45 93.48,0 157.8,48.51 179.94,122.86 26.46,-10.78 53.63,-16.79 79.87,-16.79 47.26,0 82.79,19.49 102.45,51.24 72.23,-76.08 170.81,-127.01 261.47,-127.01 90.92,0 151.03,51.24 165.45,127.69 23.58,-10.59 48.05,-16.57 71.59,-16.57 68.28,0 106.31,50.31 94.94,117.54l249.36 32.3 -273.81 32.3c-39.52,67.22 -115.63,117.53 -183.9,117.53 -23.54,0 -43.48,-5.98 -59.05,-16.57 -72.29,76.46 -171.18,127.69 -262.1,127.69 -90.66,0 -150.69,-50.93 -165.34,-127.01 -43.69,31.75 -93.98,51.25 -141.23,51.25 -26.24,0 -48.86,-6.02 -67.16,-16.8 -78.41,74.35 -179.46,122.87 -272.94,122.87 -109.95,0 -179.56,-67.13 -187.64,-164.46 -21.53,9.35 -43.79,14.62 -65.23,14.62 -63.81,0 -99.64,-46.57 -89.91,-109.1l-249.55 -32.32 274.02 -32.33c37.6,-62.52 108.67,-109.09 172.49,-109.09z"/>
  <path class="fil10" d="M7378.16 10830.48c150.36,0 209.12,257.11 131.24,574.26 -77.87,317.15 -262.89,574.25 -413.25,574.25 -91.66,0 -149.28,-95.54 -162.66,-241.97 -58.24,67.9 -126.66,110.1 -190.92,110.1 -67.7,0 -117.02,-46.83 -140.66,-121.23 -76.32,106.88 -173.72,176.17 -264.35,176.17 -90.08,0 -153.23,-68.42 -177.39,-174.16 -52.19,86.42 -121.44,143.94 -184.31,143.94 -96.86,0 -141.86,-136.55 -100.5,-304.99 41.36,-168.44 153.41,-304.98 250.28,-304.98 41.15,0 72.94,24.64 92.72,65.91 78.89,-170.99 211.64,-293.96 332.39,-293.96 95.25,0 160.39,76.53 181.16,192.77 57.99,-67.09 125.91,-108.69 189.72,-108.69 50.05,0 90.05,25.6 117.06,69.01 92.04,-209.13 225.67,-356.43 339.47,-356.43z"/>
  <path class="fil10" d="M12346.58 12096.44c-150.36,0 -209.12,-257.1 -131.24,-574.25 77.88,-317.15 262.89,-574.25 413.25,-574.25 91.66,0 149.29,95.53 162.66,241.97 58.25,-67.91 126.67,-110.1 190.92,-110.1 67.7,0 117.02,46.83 140.66,121.23 76.32,-106.88 173.72,-176.17 264.36,-176.17 90.08,0 153.23,68.42 177.38,174.16 52.19,-86.42 121.45,-143.95 184.32,-143.95 83.28,0 128.2,100.91 112.9,236.27 7.74,-1.77 15.46,-2.69 23.11,-2.69 73.01,0 111.21,83.65 85.32,186.84 -25.9,103.19 -106.07,186.84 -179.08,186.84 -35.49,0 -62.73,-19.77 -78.42,-51.93 -36.86,34.43 -76.36,54.65 -113.61,54.65 -41.15,0 -72.95,-24.64 -92.73,-65.91 -78.88,170.99 -211.64,293.96 -332.39,293.96 -95.25,0 -160.39,-76.53 -181.16,-192.77 -57.99,67.09 -125.9,108.69 -189.71,108.69 -50.05,0 -90.06,-25.6 -117.07,-69.01 -92.04,209.13 -225.66,356.42 -339.47,356.42z"/>
  <g id="trees.cdr">
   <polygon class="fil11" points="15598.34,9638.4 15600.66,9638.07 15515.52,11457.25 15417.22,11471.33 "/>
   <path class="fil11" d="M15596.62 9690c-26.11,70.52 -68.56,136.38 -129.44,173.01 5.64,11.08 11.59,19.08 17.71,24.43l18.32 -31.37 -7.13 38.24c18.8,6.88 38.43,-7.97 55.33,-33.97l-1.04 -35.29 9.38 21.14c9.23,-17.16 17.32,-37.47 23.58,-58.86l-6.74 -14.04 9.74 3.14c7.56,-29.2 11.56,-59.71 10.29,-86.43z"/>
   <path class="fil11" d="M15588.55 9806.37c22.22,88.01 68.17,163.06 145.7,190.06 -10.1,17.69 -20,31.19 -29.62,41.09l-19.23 -36.51 2.24 50.51c-27.59,17.02 -51.99,4.08 -70.32,-25.49l8.56 -49.62 -17.34 33.18c-9.42,-20.27 -16.62,-45.4 -21.04,-72.76l12.22 -22.23 -14.22 8.22c-4.66,-37.73 -4.1,-78.69 3.05,-116.45z"/>
   <path class="fil11" d="M15572.13 10031.36c-59.25,109.6 -142.6,206.3 -246.72,248.35 5.79,20.3 12.88,35.53 20.94,46.41l36.75 -46.67 -21.24 61.66c27.31,17.4 61.7,-1.23 94.82,-39.36l7.78 -59.29 8.91 38.26c18.88,-25.76 36.84,-57.15 52.23,-90.93l-6.71 -25.57 14.27 8.3c19.49,-46.41 33.83,-96.12 38.97,-141.16z"/>
   <path class="fil11" d="M15578.07 9968.56c26.3,104.19 80.69,193.04 172.48,225.01 -11.95,20.94 -23.68,36.92 -35.06,48.64l-22.77 -43.23 2.66 59.8c-32.67,20.16 -61.56,4.84 -83.26,-30.17l10.13 -58.75 -20.52 39.28c-11.16,-23.99 -19.68,-53.74 -24.91,-86.13l14.47 -26.32 -16.83 9.73c-5.52,-44.66 -4.87,-93.15 3.61,-137.86z"/>
   <path class="fil11" d="M15583.4 9862.69c-21.04,56.83 -55.26,109.92 -104.33,139.44 4.55,8.94 9.34,15.38 14.28,19.7l14.76 -25.29 -5.74 30.82c15.15,5.55 30.98,-6.42 44.6,-27.38l-0.85 -28.44 7.56 17.03c7.45,-13.82 13.97,-30.19 19.01,-47.44l-5.43 -11.31 7.85 2.53c6.09,-23.54 9.32,-48.13 8.29,-69.66z"/>
   <path class="fil11" d="M15555.39 10264.63c-71.63,132.5 -172.38,249.39 -298.25,300.23 7,24.54 15.57,42.94 25.31,56.09l44.43 -56.41 -25.67 74.53c33,21.04 74.58,-1.48 114.61,-47.57l9.41 -71.67 10.77 46.25c22.82,-31.14 44.53,-69.09 63.14,-109.92l-8.11 -30.91 17.25 10.03c23.56,-56.1 40.89,-116.2 47.11,-170.65z"/>
   <path class="fil11" d="M15562.56 10188.72c31.79,125.95 97.55,233.36 208.51,272 -14.45,25.32 -28.63,44.64 -42.39,58.8l-27.52 -52.25 3.21 72.28c-39.49,24.37 -74.41,5.85 -100.64,-36.47l12.25 -71.01 -24.81 47.48c-13.49,-29.01 -23.79,-64.96 -30.12,-104.12l17.5 -31.82 -20.35 11.77c-6.67,-53.99 -5.88,-112.61 4.36,-166.66z"/>
   <path class="fil11" d="M15538.33 10437.23c55.92,135.91 149.51,245.23 286.85,269.69 -13.51,30.87 -27.55,54.96 -41.85,73.19l-40.22 -53.94 14.24 80.56c-43.39,34.07 -87.53,19.24 -124.79,-23.78l4.31 -81.77 -22.61 57.5c-20.2,-30.25 -37.63,-68.84 -50.79,-111.69l16.19 -38.69 -22.47 16.67c-15.71,-59.45 -23.22,-125.36 -18.86,-187.74z"/>
   <path class="fil11" d="M15537.58 10571.75c-88.25,177.33 -216.03,336.08 -380.63,410.18 10.58,31.59 22.93,55.08 36.56,71.65l56.09 -76.36 -30.22 98.85c44.95,25.42 99.02,-6.53 149.81,-69.15l8.76 -94.11 16.72 59.7c28.7,-42.05 55.57,-92.91 78.17,-147.34l-12.39 -39.84 23.45 12.03c28.38,-74.67 48.27,-154.17 53.68,-225.61z"/>
   <path class="fil11" d="M15547.87 10441.1c-59.25,109.61 -142.6,206.3 -246.72,248.36 5.79,20.3 12.88,35.52 20.94,46.4l36.75 -46.67 -21.24 61.66c27.31,17.4 61.7,-1.23 94.82,-39.36l7.78 -59.28 8.91 38.26c18.88,-25.76 36.84,-57.16 52.23,-90.93l-6.71 -25.57 14.27 8.3c19.49,-46.41 33.83,-96.13 38.97,-141.17z"/>
   <path class="fil11" d="M15530.29 10708.1c22.22,88.01 68.17,163.06 145.7,190.06 -10.1,17.7 -20,31.19 -29.62,41.09l-19.23 -36.51 2.25 50.51c-27.6,17.02 -52,4.09 -70.33,-25.49l8.56 -49.62 -17.34 33.18c-9.42,-20.27 -16.62,-45.4 -21.04,-72.75l12.22 -22.24 -14.22 8.22c-4.66,-37.73 -4.1,-78.69 3.05,-116.45z"/>
   <path class="fil11" d="M15484.15 10889.47c97.38,137.1 234.66,234.9 406.56,226.92 -9.66,37.87 -21.47,68.31 -34.85,92.3l-60.51 -49.79 34.78 86.12c-45.22,49.09 -101.99,43.89 -156.53,5.51l-12.55 -92.21 -14.93 69.87c-31.08,-28.53 -60.61,-67.06 -85.88,-111.43l11.23 -47.27 -23.64 24.34c-31.98,-62.21 -55.41,-133.72 -63.68,-204.36z"/>
   <path class="fil11" d="M15511.74 10987.97c-59.25,109.6 -142.6,206.3 -246.72,248.35 5.79,20.3 12.88,35.53 20.94,46.41l36.75 -46.67 -21.23 61.66c27.3,17.4 61.69,-1.23 94.81,-39.36l7.78 -59.29 8.91 38.26c18.88,-25.76 36.84,-57.15 52.23,-90.93l-6.71 -25.57 14.27 8.3c19.5,-46.41 33.83,-96.12 38.97,-141.16z"/>
  </g>
  <rect class="fil12" x="2408.38" y="11467.94" width="16000" height="4330.24"/>
  <path class="fil13" d="M18408.38 11043.95l0 4754.24 -9179.47 0c-214.13,-306.8 -328.38,-628.62 -328.38,-960.41 0,-2013.54 4197.51,-3661.31 9507.85,-3793.83z"/>
  <path class="fil11" d="M14512.12 11440.97c390.2,-73.39 794.79,-137.66 1211.72,-192.17 -542.22,696.92 -899.47,1440.24 -1004.67,2345.97l-1025.83 -332.13c151.45,-738.59 395.12,-1278.42 818.78,-1821.67zm1922.65 -274.34c391.22,-39.38 791.75,-70.3 1200.09,-92.21 -417.36,900.42 -507.16,1936.55 -472.95,2871.08l-1403.27 -350.27c138.41,-847.12 338.11,-1659.03 676.13,-2428.6z"/>
  <path class="fil13" d="M11587.85 15798.19l-9179.47 0 0 -4754.24c5310.34,132.52 9507.85,1780.29 9507.85,3793.83 0,331.79 -114.25,653.61 -328.38,960.41z"/>
  <path class="fil11" d="M2408.38 13829.56l0 -1425.75c268.07,-483.53 617.94,-915.36 998.35,-1316.44 391.33,24.32 775.16,56.92 1150,97.39 -819.19,594.16 -1304.71,1776.55 -1680.49,2827.67l-467.86 -182.87zm2781.91 -2567.81c324.61,43.82 641.77,93.46 950.08,148.87 -464.69,926.28 -563.87,2011.11 -528.2,2985.5l-1403.27 -350.26c118.64,-1006.47 451.22,-1975.61 981.39,-2784.11z"/>
  <path class="fil14" d="M18408.38 13115.65l0 2682.54 -16000 0 0 -2682.54c1968.63,-593.17 4823.25,-966.32 8000,-966.32 3176.75,0 6031.37,373.15 8000,966.32z"/>
  <path class="fil15" d="M18408.38 13196.48l0 2601.71 -16000 0 0 -2601.71c1968.63,-575.3 4823.25,-937.2 8000,-937.2 3176.75,0 6031.37,361.9 8000,937.2z"/>
  <path class="fil16" d="M18408.38 13840.55l0 1957.64 -15720.39 0c1119.53,-1467.91 5135.83,-2554.42 9919.39,-2554.42 2154.16,0 4152.39,220.52 5801,596.78z"/>
  <polygon class="fil16" points="7267.42,12275.56 11277.43,14413.51 15570.63,13699.12 12480.15,12203.35 "/>
  <path class="fil17" d="M14165.97 15798.19l-7743.85 0c1349.17,-932.24 2488.19,-1128.45 457.92,-2082.27 -1626,-763.89 1025.55,-1211.32 1087.85,-1254.67l1586.51 344.64c-768.99,31.18 -1006.11,196.77 -829.62,322.19 1381.69,981.91 7469.29,-168.61 5441.19,2670.11z"/>
  <polygon class="fil18" points="7108.08,9464.8 9347.72,9370.9 8933.51,6819.38 8764.36,6549.74 7361.21,7527.9 "/>
  <polygon class="fil19" points="7267.42,12275.56 7539.28,9258.95 10366.51,9423.81 10525.35,12919.6 "/>
  <polygon class="fil18" points="10525.35,12919.6 12480.15,12203.35 12198.97,9357.88 10366.51,9423.81 "/>
  <polygon class="fil20" points="12251.21,9886.56 12198.97,9357.88 10366.51,9423.81 10376.29,9639.14 10647.74,9985.02 "/>
  <polygon class="fil19" points="7539.28,9258.95 7842.91,7599.38 9026.16,6753.11 10198.93,7643.34 10366.51,9423.81 8858.74,9618.6 "/>
  <polygon class="fil21" points="8736.44,6413.85 11009.24,6624.78 12332.62,7629.35 12513.74,9553.64 10190.29,9646.57 10056.23,7535.01 "/>
  <polygon class="fil22" points="6914.06,9425.86 7273.73,7460 8736.44,6413.85 10187.98,7515.68 10386.62,9626.28 10190.29,9646.57 10000.42,7629.25 8732.94,6667.13 7452.37,7583.01 7108.08,9464.8 "/>
  <polygon class="fil23" points="10187.98,7515.68 12332.62,7629.35 12513.74,9553.64 10386.62,9626.28 "/>
  <path class="fil22" d="M8736.44 6413.85l2281.7 185.71c446.2,338.19 892.01,676.99 1337.92,1015.59l182.22 1935.96 -49.07 5.06 -180.03 -1912.62 -1308.85 -993.54 -2268.14 -184.45 4.25 -51.71z"/>
  <polygon class="fil24" points="7522.31,9447.44 8144.13,7858.89 9366.69,7148.19 8933.51,6819.38 7842.91,7599.38 "/>
  <polygon class="fil23" points="12560.41,12224.74 10519.75,13015.59 10494.86,12250.33 12520.89,11619.15 "/>
  <polygon class="fil21" points="10494.86,12250.33 10492.38,12193.91 12422.06,11615.52 12420.78,11602.68 12520.89,11619.15 "/>
  <polygon class="fil21" points="10519.75,13015.59 7156.22,12284.93 7195.8,11692.18 10494.86,12250.33 "/>
  <polygon class="fil7" points="7195.8,11692.18 7324.16,11646.08 7321.22,11678.65 10492.38,12193.91 10494.86,12250.33 "/>
  <polygon class="fil22" points="12244,9562.78 12443.36,11580.22 12544.17,11596.81 12585.05,12223.01 12535.78,12226.46 12497.6,11641.5 12398.19,11625.15 12194.93,9568.05 "/>
  <path class="fil25" d="M10748.87 9624.24l128.62 2454.24 -29.2 8.75 -129.01 -2461.81 29.59 -1.18zm309.27 -12.37l151.24 2367.13 -29.11 8.73 -151.72 -2374.68 29.59 -1.18zm311.18 -12.45l171.93 2280.11 -29.03 8.7 -172.49 -2287.63 29.59 -1.18zm313.08 -12.53l190.67 2193.18 -28.96 8.69 -191.33 -2200.68 29.62 -1.19zm314.99 -12.59l207.46 2106.32 -28.91 8.66 -208.19 -2113.8 29.64 -1.18z"/>
  <path class="fil26" d="M7953.81 7520.08l-305.25 4211.76 -19.59 -3.19 303.93 -4193.61 20.91 -14.96zm2115.05 836.27l109.59 3786.56 -19.81 -3.22 -118.25 -4085.81 28.47 302.47zm-326.46 -922.96l73.92 4650.68 -19.76 -3.22 -74.11 -4662.6 19.95 15.14zm-299.6 -227.42l11.61 4819.29 -19.71 -3.21 -11.64 -4831.06 19.74 14.98zm-292.56 -222.07l-57.51 4982.59 -19.68 -3.2 57.65 -4994.23 19.54 14.84zm-288.08 -113.48l-130.86 5037.34 -19.65 -3.19 130.4 -5019.77 20.11 -14.38zm-296.97 212.39l-195.07 4766.27 -19.62 -3.19 194.34 -4748.52 20.35 -14.56zm-302.62 216.44l-253.37 4491.18 -19.61 -3.18 252.36 -4473.25 20.62 -14.75z"/>
  <g>
   <path class="fil27" d="M7953.81 7520.08l-73.38 1012.48 -24.33 62.14 76.8 -1059.66 20.91 -14.96zm259.67 298.5l20.47 -11.9 28.62 -507.43 -20.62 14.75 -28.47 504.58zm309.19 -179.75l20.25 -11.75 22.27 -544.27 -20.35 14.56 -22.17 541.46zm304.39 -176.94l20.04 -11.65 15.06 -579.82 -20.11 14.38 -14.99 577.09zm299.96 -174.37l19.85 -11.54 -19.85 11.54zm22.82 -303.92l-19.14 -14.53 -3.68 318.45 22.82 -303.92z"/>
  </g>
  <path class="fil28" d="M10040.39 8053.88l118.25 4085.81 -19.79 -3.22 -126.92 -4384.92 28.46 302.33zm-2107.49 -518.84l-303.93 4193.61 -19.59 -3.18 302.61 -4175.48 20.91 -14.95zm309.05 -221.04l-252.36 4473.25 -19.59 -3.19 251.35 -4455.33 20.6 -14.73zm302.89 -216.63l-194.34 4748.52 -19.61 -3.19 193.6 -4730.78 20.35 -14.55zm297.21 -212.57l-130.4 5019.77 -19.64 -3.19 129.95 -5002.21 20.09 -14.37zm288.65 84.26l-57.65 4994.23 -19.67 -3.2 57.77 -5005.86 19.55 14.83zm292.36 221.93l11.64 4831.06 -19.71 -3.2 -11.67 -4842.85 19.74 14.99zm299.39 227.26l74.11 4662.6 -19.75 -3.21 -74.31 -4674.53 19.95 15.14z"/>
  <path class="fil29" d="M7831.77 8656.85l24.33 -62.15 76.8 -1059.66 -20.91 14.95 -80.22 1106.86zm361.27 -826.39l20.44 -11.88 28.47 -504.58 -20.6 14.73 -28.31 501.73zm309.41 -179.86l20.22 -11.77 22.17 -541.46 -20.35 14.55 -22.04 538.68zm304.59 -177.07l20.02 -11.64 14.99 -577.09 -20.09 14.37 -14.92 574.36zm300.13 -174.48l19.85 -11.53 3.68 -318.45 -11.7 -8.89 -7.85 -5.95 -3.98 344.82z"/>
  <polygon class="fil21" points="7867.35,12439.41 8007.85,10042.26 9636.12,10130.18 9682.37,12833.69 "/>
  <polygon class="fil8" points="9670.01,12110.78 9700.75,12095.26 9712.86,12067.25 9674.08,10110.96 8045.5,10034.09 8007.85,10042.26 9636.12,10130.18 "/>
  <polygon class="fil30" points="7967.89,12461.25 8239.63,10163.76 9533.33,10227.38 9554.4,12805.89 "/>
  <path class="fil31" d="M8842.36 10193.4l436.55 21.47 0 314.96 -445.5 -22.37 8.95 -314.06zm520.32 25.59l170.65 8.39 2.57 315.35 -173.22 -8.7 0 -315.04zm174.17 439.36l7.62 932.22 -181.79 0.77 0 -941.74 174.17 8.75zm-257.94 933.34l-476.46 2.01 27.67 -970.83 448.79 22.53 0 946.29z"/>
  <polygon class="fil32" points="7967.89,12461.25 9550.59,12338.94 9554.4,12805.89 "/>
  <polygon class="fil25" points="11225.74,11467.94 11278.45,11514.66 11973.49,11373.16 11858.3,10117.48 11803.82,10087.65 "/>
  <polygon class="fil23" points="8239.63,10163.76 8139.62,12447.99 7967.89,12461.25 8091.6,10156.48 "/>
  <polygon class="fil21" points="11840.98,10083.25 11788.75,10069.04 11153.1,10145.07 11225.74,11467.94 11280.76,11467.94 "/>
  <polygon class="fil23" points="11200.09,10159.15 11840.98,10083.25 11950.92,11330.67 11280.76,11467.94 "/>
  <polygon class="fil30" points="11282.18,10231.27 11352.39,11370.41 11867.32,11264.94 11771.11,10173.37 "/>
  <polygon class="fil21" points="11733.77,10177.79 11827.33,11254.22 11351.02,11348.1 11352.39,11370.41 11867.32,11264.94 11771.11,10173.37 "/>
  <polygon class="fil21" points="11779.18,10700.26 11315.44,10770.84 11317.46,10785.56 11794.31,10712.97 "/>
  <polygon class="fil21" points="11484.96,10207.27 11558.23,11307.27 11584.86,11322.79 11509.52,10204.36 "/>
  <polygon class="fil23" points="11506.34,10157.1 11587.5,11361.94 11639.86,11361.94 11550.85,10157.1 "/>
  <polygon class="fil23" points="11267.45,10793.17 11855.49,10703.66 11863.34,10738.01 11271.38,10838.51 "/>
  <polygon class="fil21" points="8561.46,7614.63 8612.48,7599.97 9250.47,7594.4 9253.05,8501.51 9198.28,8506.55 "/>
  <polygon class="fil7" points="9204.65,7608.5 8561.46,7614.63 8537.53,8491.23 9198.28,8506.55 "/>
  <polygon class="fil30" points="9127.88,7666.14 9120.29,8445.38 8616.25,8437.89 8637.19,7670.81 "/>
  <polygon class="fil21" points="8674.67,7670.45 8655.31,8426.77 9120.13,8429.76 9120.29,8445.38 8616.25,8437.89 8637.19,7670.81 "/>
  <polygon class="fil21" points="8665.95,8037.54 9124.36,8027.6 9124.24,8040.07 8651.09,8047.77 "/>
  <polygon class="fil21" points="8924.37,7668.07 8914.9,8433.66 8888.14,8435.2 8899.73,7668.31 "/>
  <polygon class="fil7" points="8899.65,7635.2 8888.2,8462.65 8836.07,8467.45 8855.35,7639.28 "/>
  <polygon class="fil7" points="9165.29,8035.69 8589.54,8040.13 8584.08,8073.19 9164.48,8078.53 "/>
  <path class="fil33" d="M7729.32 12521.82c135.19,-32.5 227.54,-52.9 238.57,-60.57l1586.51 344.64c-568.81,23.06 -846.55,119.67 -881.21,219.16l-943.87 -503.23z"/>
  <path class="fil33" d="M14165.97 15798.19l-7743.85 0c1313.44,-907.56 2427.24,-1117.66 612.11,-2008.17 741.73,-159.79 1549.89,-288.59 2407.83,-380.94 2064.63,474.93 6497.49,-93.35 4723.91,2389.11z"/>
  <ellipse class="fil34" cx="16483.38" cy="14784.51" rx="261.78" ry="109.9"/>
  <ellipse class="fil34" cx="15376.19" cy="14259.71" rx="117.79" ry="49.45"/>
  <ellipse class="fil34" cx="13535.12" cy="13376.1" rx="92.25" ry="38.73"/>
  <ellipse class="fil34" cx="17275.05" cy="14103.82" rx="150.16" ry="63.04"/>
  <ellipse class="fil34" cx="10294.49" cy="13330.66" rx="92.25" ry="38.73"/>
  <ellipse class="fil35" cx="12839.4" cy="15158.18" rx="261.78" ry="109.9"/>
  <ellipse class="fil35" cx="12209.97" cy="14199.29" rx="104.71" ry="43.96"/>
  <ellipse class="fil34" cx="4491.24" cy="15589.33" rx="261.78" ry="109.9"/>
  <ellipse class="fil34" cx="6352.16" cy="14964.37" rx="160.01" ry="67.18"/>
  <ellipse class="fil35" cx="9698.02" cy="14740.55" rx="209.43" ry="87.93"/>
  <ellipse class="fil35" cx="8686.41" cy="14056.42" rx="104.71" ry="43.96"/>
  <ellipse class="fil35" cx="8550.34" cy="15411.02" rx="104.71" ry="43.96"/>
  <ellipse class="fil36" cx="4001.31" cy="13418.59" rx="92.25" ry="38.73"/>
  <ellipse class="fil36" cx="3128.57" cy="14423.73" rx="224.13" ry="94.1"/>
  <ellipse class="fil36" cx="5057.73" cy="13881.48" rx="156.23" ry="65.59"/>
  <ellipse class="fil36" cx="15708.12" cy="13000.95" rx="92.25" ry="38.73"/>
  <ellipse class="fil34" cx="12294.28" cy="12843.05" rx="92.25" ry="38.73"/>
  <g>
   <ellipse class="fil15" cx="4382.15" cy="11768.22" rx="430.63" ry="43.96"/>
   <path class="fil33" d="M4605.31 11397.99c60.35,0.41 97.77,86.45 83.59,192.2 -14.17,105.74 -74.59,191.13 -134.93,190.72l-596.5 -4 51.35 -382.92 596.49 4z"/>
   <ellipse class="fil37" transform="matrix(0.971757 0.00651892 -0.141647 1.05638 3983.15 11585.5)" rx="112.44" ry="181.24"/>
  </g>
  <g>
   <ellipse class="fil15" cx="5440.02" cy="12331.48" rx="598.51" ry="61.1"/>
   <path class="fil33" d="M5750.18 11816.91c83.88,0.56 135.89,120.15 116.18,267.12 -19.7,146.97 -103.67,265.64 -187.54,265.08l-829.04 -5.56 71.36 -532.2 829.04 5.56z"/>
   <ellipse class="fil37" transform="matrix(1.3506 0.00906037 -0.196869 1.46822 4885.46 12077.5)" rx="112.44" ry="181.24"/>
  </g>
  <g>
   <ellipse class="fil15" cx="17654.28" cy="12559.45" rx="598.51" ry="61.1"/>
   <path class="fil33" d="M17964.44 12044.88c83.88,0.56 135.89,120.15 116.19,267.12 -19.71,146.96 -103.67,265.64 -187.55,265.08l-829.04 -5.56 71.36 -532.2 829.04 5.56z"/>
   <ellipse class="fil37" transform="matrix(1.3506 0.00906037 -0.196869 1.46822 17099.7 12305.4)" rx="112.44" ry="181.24"/>
  </g>
  <g>
   <ellipse class="fil15" cx="14434.52" cy="11966.05" rx="430.63" ry="43.96"/>
   <path class="fil33" d="M14657.67 11595.82c60.35,0.41 97.78,86.45 83.6,192.19 -14.18,105.75 -74.59,191.14 -134.94,190.73l-596.49 -4 51.34 -382.92 596.49 4z"/>
   <ellipse class="fil37" transform="matrix(0.971757 0.00651892 -0.141647 1.05638 14035.5 11783.3)" rx="112.44" ry="181.24"/>
  </g>
  <g id="trees.cdr_0">
   <polygon class="fil11" points="17244,9057.89 17246.85,9057.48 17142.49,11287.47 17021.98,11304.74 "/>
   <path class="fil11" d="M17241.89 9121.14c-32,86.44 -84.04,167.17 -158.67,212.07 6.92,13.6 14.21,23.39 21.71,29.96l22.46 -38.46 -8.74 46.88c23.04,8.42 47.12,-9.78 67.83,-41.65l-1.28 -43.25 11.5 25.9c11.31,-21.02 21.24,-45.92 28.91,-72.15l-8.27 -17.2 11.95 3.84c9.26,-35.79 14.17,-73.19 12.6,-105.94z"/>
   <path class="fil11" d="M17232.01 9263.79c27.23,107.88 83.55,199.88 178.59,232.98 -12.37,21.69 -24.51,38.23 -36.3,50.36l-23.57 -44.75 2.75 61.91c-33.83,20.87 -63.74,5.01 -86.21,-31.24l10.49 -60.82 -21.25 40.67c-11.55,-24.85 -20.38,-55.65 -25.8,-89.19l14.99 -27.25 -17.43 10.08c-5.72,-46.25 -5.04,-96.46 3.74,-142.75z"/>
   <path class="fil11" d="M17211.88 9539.58c-72.63,134.36 -174.8,252.89 -302.44,304.44 7.09,24.89 15.79,43.55 25.67,56.89l45.05 -57.21 -26.03 75.58c33.47,21.33 75.63,-1.5 116.22,-48.24l9.54 -72.68 10.92 46.9c23.15,-31.58 45.16,-70.06 64.03,-111.46l-8.22 -31.35 17.49 10.18c23.89,-56.89 41.46,-117.84 47.77,-173.05z"/>
   <path class="fil11" d="M17219.15 9462.6c32.24,127.72 98.92,236.64 211.44,275.83 -14.65,25.67 -29.03,45.26 -42.98,59.62l-27.91 -52.99 3.26 73.3c-40.05,24.71 -75.46,5.94 -102.06,-36.98l12.42 -72.01 -25.16 48.15c-13.67,-29.42 -24.13,-65.88 -30.54,-105.58l17.74 -32.27 -20.63 11.93c-6.77,-54.75 -5.96,-114.19 4.42,-169z"/>
   <path class="fil11" d="M17225.7 9332.83c-25.8,69.66 -67.74,134.74 -127.89,170.93 5.57,10.95 11.44,18.85 17.49,24.14l18.1 -31 -7.04 37.79c18.57,6.79 37.98,-7.88 54.67,-33.57l-1.03 -34.86 9.27 20.88c9.12,-16.95 17.12,-37.02 23.3,-58.16l-6.66 -13.86 9.62 3.09c7.47,-28.84 11.43,-58.99 10.17,-85.38z"/>
   <path class="fil11" d="M17191.35 9825.54c-87.79,162.42 -211.3,305.7 -365.59,368.02 8.57,30.08 19.08,52.64 31.02,68.76l54.46 -69.15 -31.47 91.37c40.46,25.78 91.43,-1.82 140.5,-58.32l11.53 -87.85 13.2 56.69c27.98,-38.17 54.6,-84.69 77.41,-134.74l-9.95 -37.89 21.15 12.29c28.88,-68.77 50.12,-142.44 57.74,-209.18z"/>
   <path class="fil11" d="M17200.15 9732.49c38.97,154.39 119.58,286.05 255.59,333.42 -17.71,31.04 -35.09,54.72 -51.95,72.07l-33.74 -64.05 3.93 88.61c-48.41,29.87 -91.21,7.17 -123.37,-44.71l15.01 -87.04 -30.41 58.2c-16.53,-35.56 -29.16,-79.64 -36.91,-127.63l21.45 -39.01 -24.95 14.43c-8.18,-66.19 -7.21,-138.05 5.35,-204.29z"/>
   <path class="fil11" d="M17170.45 10037.11c68.55,166.6 183.27,300.61 351.62,330.6 -16.55,37.84 -33.77,67.37 -51.3,89.72l-49.3 -66.13 17.45 98.76c-53.18,41.75 -107.29,23.58 -152.96,-29.16l5.27 -100.23 -27.71 70.49c-24.76,-37.09 -46.13,-84.39 -62.26,-136.92l19.85 -47.43 -27.55 20.44c-19.26,-72.87 -28.47,-153.67 -23.11,-230.14z"/>
   <path class="fil11" d="M17169.53 10202.01c-108.19,217.37 -264.82,411.97 -466.59,502.81 12.96,38.73 28.1,67.52 44.81,87.83l68.76 -93.61 -37.05 121.18c55.11,31.16 121.39,-8.01 183.65,-84.76l10.73 -115.37 20.5 73.18c35.19,-51.54 68.13,-113.89 95.83,-180.62l-15.19 -48.83 28.74 14.75c34.79,-91.53 59.17,-188.98 65.81,-276.56z"/>
   <path class="fil11" d="M17182.14 10041.85c-72.63,134.36 -174.8,252.89 -302.44,304.45 7.09,24.88 15.79,43.54 25.67,56.88l45.05 -57.21 -26.03 75.58c33.47,21.34 75.63,-1.5 116.22,-48.24l9.54 -72.67 10.92 46.89c23.15,-31.57 45.16,-70.06 64.03,-111.46l-8.22 -31.34 17.49 10.17c23.89,-56.89 41.46,-117.83 47.77,-173.05z"/>
   <path class="fil11" d="M17160.59 10369.15c27.23,107.88 83.56,199.89 178.6,232.99 -12.38,21.68 -24.52,38.23 -36.3,50.36l-23.58 -44.76 2.75 61.92c-33.83,20.87 -63.74,5.01 -86.21,-31.24l10.49 -60.83 -21.25 40.67c-11.55,-24.85 -20.38,-55.65 -25.79,-89.18l14.99 -27.26 -17.44 10.08c-5.71,-46.25 -5.03,-96.46 3.74,-142.75z"/>
   <path class="fil11" d="M17104.03 10591.48c119.37,168.05 287.65,287.95 498.37,278.17 -11.85,46.41 -26.32,83.73 -42.72,113.13l-74.18 -61.03 42.64 105.57c-55.44,60.17 -125.02,53.8 -191.88,6.76l-15.39 -113.04 -18.3 85.65c-38.09,-34.97 -74.29,-82.2 -105.27,-136.6l13.76 -57.94 -28.97 29.84c-39.2,-76.26 -67.93,-163.92 -78.06,-250.51z"/>
   <path class="fil11" d="M17137.85 10712.22c-72.63,134.36 -174.8,252.89 -302.43,304.44 7.09,24.88 15.78,43.55 25.66,56.88l45.05 -57.2 -26.03 75.58c33.47,21.33 75.63,-1.51 116.23,-48.25l9.53 -72.67 10.92 46.9c23.15,-31.58 45.17,-70.06 64.04,-111.47l-8.23 -31.34 17.49 10.17c23.9,-56.89 41.47,-117.83 47.77,-173.04z"/>
  </g>
  <g id="trees.cdr_1">
   <polygon class="fil13" points="16087.69,9828.14 16089.57,9827.87 16020.61,11301.29 15940.99,11312.7 "/>
   <path class="fil13" d="M16086.29 9869.93c-21.14,57.11 -55.52,110.46 -104.83,140.13 4.56,8.98 9.38,15.45 14.34,19.79l14.84 -25.42 -5.78 30.98c15.23,5.57 31.13,-6.46 44.82,-27.52l-0.85 -28.57 7.6 17.11c7.48,-13.89 14.03,-30.34 19.1,-47.67l-5.46 -11.37 7.89 2.54c6.12,-23.65 9.37,-48.36 8.33,-70z"/>
   <path class="fil13" d="M16079.76 9964.18c17.99,71.28 55.21,132.07 118,153.94 -8.17,14.33 -16.2,25.26 -23.98,33.28l-15.58 -29.57 1.82 40.91c-22.35,13.79 -42.12,3.31 -56.96,-20.65l6.93 -40.19 -14.04 26.88c-7.63,-16.42 -13.47,-36.77 -17.04,-58.93l9.9 -18.01 -11.52 6.66c-3.78,-30.56 -3.33,-63.73 2.47,-94.32z"/>
   <path class="fil13" d="M16066.46 10146.41c-47.99,88.77 -115.49,167.09 -199.83,201.15 4.69,16.44 10.43,28.77 16.96,37.58l29.77 -37.79 -17.2 49.94c22.11,14.09 49.97,-1 76.79,-31.88l6.3 -48.02 7.22 30.99c15.29,-20.87 29.84,-46.29 42.31,-73.65l-5.44 -20.71 11.56 6.72c15.79,-37.58 27.4,-77.85 31.56,-114.33z"/>
   <path class="fil13" d="M16071.27 10095.55c21.3,84.38 65.36,156.35 139.7,182.24 -9.68,16.96 -19.18,29.91 -28.4,39.39l-18.44 -35.01 2.15 48.44c-26.46,16.32 -49.86,3.92 -67.43,-24.44l8.2 -47.58 -16.62 31.81c-9.03,-19.43 -15.94,-43.52 -20.17,-69.76l11.72 -21.32 -13.64 7.89c-4.47,-36.18 -3.93,-75.45 2.93,-111.66z"/>
   <path class="fil13" d="M16075.59 10009.8c-17.04,46.03 -44.76,89.03 -84.5,112.94 3.68,7.24 7.56,12.45 11.56,15.95l11.96 -20.48 -4.65 24.96c12.27,4.49 25.09,-5.2 36.12,-22.17l-0.68 -23.04 6.12 13.8c6.03,-11.2 11.31,-24.46 15.4,-38.43l-4.41 -9.16 6.37 2.05c4.93,-19.06 7.54,-38.98 6.71,-56.42z"/>
   <path class="fil13" d="M16052.9 10335.35c-58.01,107.31 -139.62,201.98 -241.56,243.16 5.66,19.88 12.61,34.78 20.5,45.43l35.98 -45.69 -20.79 60.37c26.73,17.04 60.41,-1.2 92.83,-38.53l7.62 -58.05 8.72 37.46c18.49,-25.22 36.07,-55.96 51.15,-89.03l-6.57 -25.03 13.97 8.12c19.08,-45.44 33.12,-94.11 38.15,-138.21z"/>
   <path class="fil13" d="M16058.71 10273.87c25.75,102 79.01,189 168.87,220.3 -11.7,20.51 -23.18,36.15 -34.32,47.62l-22.29 -42.32 2.6 58.55c-31.99,19.73 -60.27,4.73 -81.52,-29.55l9.92 -57.51 -20.09 38.46c-10.92,-23.5 -19.27,-52.62 -24.39,-84.33l14.17 -25.78 -16.48 9.53c-5.41,-43.73 -4.76,-91.2 3.53,-134.97z"/>
   <path class="fil13" d="M16039.09 10475.14c45.29,110.08 121.09,198.62 232.32,218.43 -10.94,25.01 -22.31,44.52 -33.89,59.28l-32.58 -43.69 11.53 65.25c-35.14,27.59 -70.89,15.58 -101.06,-19.26l3.48 -66.23 -18.31 46.58c-16.36,-24.51 -30.48,-55.76 -41.13,-90.47l13.11 -31.34 -18.2 13.51c-12.73,-48.15 -18.81,-101.53 -15.27,-152.06z"/>
   <path class="fil13" d="M16038.48 10584.09c-71.48,143.63 -174.98,272.21 -308.29,332.22 8.57,25.59 18.57,44.62 29.61,58.03l45.43 -61.84 -24.48 80.06c36.41,20.59 80.21,-5.29 121.34,-56.01l7.1 -76.22 13.54 48.35c23.25,-34.05 45.01,-75.25 63.31,-119.34l-10.03 -32.26 18.99 9.74c22.98,-60.47 39.09,-124.86 43.48,-182.73z"/>
   <path class="fil13" d="M16046.81 10478.27c-47.99,88.78 -115.49,167.09 -199.83,201.16 4.69,16.44 10.43,28.77 16.96,37.58l29.77 -37.8 -17.2 49.94c22.11,14.1 49.97,-0.99 76.79,-31.88l6.3 -48.01 7.22 30.98c15.29,-20.86 29.84,-46.29 42.31,-73.64l-5.44 -20.71 11.56 6.72c15.79,-37.59 27.4,-77.86 31.56,-114.34z"/>
   <path class="fil13" d="M16032.57 10694.53c18,71.28 55.21,132.07 118.01,153.94 -8.18,14.33 -16.2,25.26 -23.99,33.27l-15.57 -29.57 1.81 40.91c-22.35,13.79 -42.11,3.31 -56.96,-20.64l6.93 -40.19 -14.04 26.87c-7.63,-16.42 -13.46,-36.77 -17.04,-58.92l9.9 -18.01 -11.52 6.66c-3.77,-30.56 -3.32,-63.74 2.47,-94.32z"/>
   <path class="fil13" d="M15995.21 10841.43c78.86,111.03 190.05,190.25 329.28,183.79 -7.83,30.66 -17.39,55.33 -28.23,74.75l-49.01 -40.33 28.18 69.76c-36.64,39.76 -82.61,35.55 -126.79,4.46l-10.16 -74.69 -12.09 56.6c-25.18,-23.11 -49.09,-54.32 -69.56,-90.26l9.09 -38.28 -19.14 19.72c-25.9,-50.39 -44.88,-108.31 -51.57,-165.52z"/>
   <path class="fil13" d="M16017.55 10921.2c-47.99,88.77 -115.5,167.09 -199.83,201.15 4.69,16.44 10.43,28.78 16.96,37.59l29.77 -37.8 -17.2 49.94c22.11,14.09 49.97,-1 76.79,-31.88l6.3 -48.02 7.22 30.99c15.29,-20.86 29.84,-46.29 42.31,-73.65l-5.44 -20.71 11.56 6.73c15.78,-37.59 27.39,-77.86 31.56,-114.34z"/>
  </g>
  <g id="trees.cdr_2">
   <polygon class="fil13" points="3081.38,9601.85 3083.43,9601.56 3008.41,11204.41 2921.79,11216.83 "/>
   <path class="fil13" d="M3079.86 9647.32c-23,62.12 -60.4,120.15 -114.04,152.43 4.96,9.77 10.21,16.81 15.6,21.53l16.14 -27.65 -6.28 33.7c16.56,6.06 33.86,-7.03 48.75,-29.93l-0.92 -31.09 8.27 18.61c8.13,-15.11 15.26,-33.01 20.78,-51.86l-5.95 -12.36 8.59 2.76c6.66,-25.73 10.19,-52.6 9.06,-76.14z"/>
   <path class="fil13" d="M3072.76 9749.84c19.57,77.55 60.05,143.68 128.37,167.47 -8.9,15.58 -17.63,27.48 -26.1,36.2l-16.94 -32.17 1.98 44.5c-24.32,15 -45.82,3.6 -61.97,-22.46l7.54 -43.72 -15.27 29.24c-8.3,-17.86 -14.65,-40 -18.54,-64.1l10.77 -19.6 -12.53 7.25c-4.11,-33.24 -3.62,-69.33 2.69,-102.61z"/>
   <path class="fil13" d="M3058.29 9948.08c-52.21,96.57 -125.64,181.77 -217.38,218.82 5.09,17.89 11.34,31.3 18.44,40.89l32.39 -41.12 -18.72 54.32c24.06,15.34 54.37,-1.08 83.54,-34.67l6.86 -52.24 7.85 33.71c16.63,-22.7 32.46,-50.36 46.02,-80.12l-5.91 -22.53 12.57 7.32c17.18,-40.89 29.81,-84.7 34.34,-124.38z"/>
   <path class="fil13" d="M3063.52 9892.75c23.17,91.8 71.1,170.09 151.97,198.25 -10.53,18.46 -20.86,32.54 -30.89,42.86l-20.06 -38.09 2.34 52.69c-28.79,17.76 -54.24,4.26 -73.36,-26.59l8.93 -51.75 -18.08 34.6c-9.83,-21.14 -17.34,-47.35 -21.95,-75.89l12.75 -23.19 -14.83 8.58c-4.87,-39.36 -4.29,-82.08 3.18,-121.47z"/>
   <path class="fil13" d="M3068.22 9799.47c-18.54,50.07 -48.69,96.85 -91.92,122.86 4,7.87 8.23,13.55 12.57,17.35l13.01 -22.28 -5.06 27.16c13.35,4.88 27.3,-5.66 39.3,-24.13l-0.75 -25.05 6.66 15c6.56,-12.18 12.31,-26.61 16.75,-41.8l-4.78 -9.96 6.92 2.22c5.36,-20.73 8.21,-42.4 7.3,-61.37z"/>
   <path class="fil13" d="M3043.53 10153.62c-63.1,116.74 -151.87,219.73 -262.77,264.52 6.16,21.62 13.71,37.84 22.3,49.42l39.14 -49.7 -22.62 65.67c29.08,18.54 65.72,-1.31 100.99,-41.92l8.28 -63.14 9.49 40.75c20.11,-27.44 39.24,-60.88 55.64,-96.85l-7.15 -27.24 15.2 8.84c20.76,-49.43 36.03,-102.38 41.5,-150.35z"/>
   <path class="fil13" d="M3049.86 10086.73c28.01,110.97 85.95,205.61 183.71,239.66 -12.73,22.31 -25.22,39.33 -37.34,51.8l-24.25 -46.04 2.83 63.7c-34.8,21.46 -65.57,5.15 -88.68,-32.14l10.79 -62.57 -21.86 41.84c-11.88,-25.56 -20.96,-57.24 -26.53,-91.74l15.41 -28.04 -17.93 10.37c-5.88,-47.57 -5.18,-99.22 3.85,-146.84z"/>
   <path class="fil13" d="M3028.51 10305.69c49.27,119.74 131.73,216.07 252.73,237.62 -11.89,27.2 -24.27,48.43 -36.87,64.49l-35.44 -47.53 12.55 70.98c-38.23,30.02 -77.12,16.95 -109.95,-20.96l3.8 -72.04 -19.93 50.67c-17.79,-26.66 -33.15,-60.66 -44.74,-98.42l14.26 -34.08 -19.8 14.68c-13.84,-52.37 -20.46,-110.45 -16.61,-165.41z"/>
   <path class="fil13" d="M3027.85 10424.21c-77.76,156.25 -190.35,296.12 -335.37,361.41 9.32,27.83 20.2,48.53 32.21,63.12l49.42 -67.27 -26.63 87.09c39.61,22.4 87.25,-5.75 132,-60.92l7.72 -82.92 14.73 52.6c25.29,-37.05 48.97,-81.87 68.88,-129.82l-10.92 -35.11 20.66 10.6c25,-65.78 42.53,-135.83 47.3,-198.78z"/>
   <path class="fil13" d="M3036.91 10309.1c-52.2,96.57 -125.64,181.77 -217.38,218.82 5.1,17.89 11.35,31.3 18.45,40.89l32.38 -41.12 -18.71 54.32c24.05,15.34 54.36,-1.08 83.54,-34.67l6.85 -52.24 7.85 33.71c16.64,-22.7 32.46,-50.36 46.03,-80.12l-5.92 -22.53 12.58 7.32c17.17,-40.89 29.8,-84.7 34.33,-124.38z"/>
   <path class="fil13" d="M3021.43 10544.35c19.57,77.54 60.05,143.67 128.36,167.46 -8.89,15.59 -17.62,27.48 -26.09,36.2l-16.94 -32.17 1.97 44.51c-24.31,15 -45.81,3.6 -61.96,-22.46l7.54 -43.72 -15.27 29.23c-8.31,-17.86 -14.65,-39.99 -18.54,-64.1l10.77 -19.59 -12.53 7.24c-4.11,-33.24 -3.62,-69.33 2.69,-102.6z"/>
   <path class="fil13" d="M2980.77 10704.15c85.8,120.79 206.75,206.97 358.22,199.94 -8.52,33.36 -18.92,60.19 -30.71,81.32l-53.32 -43.87 30.65 75.88c-39.85,43.25 -89.86,38.68 -137.92,4.86l-11.06 -81.25 -13.15 61.57c-27.38,-25.14 -53.4,-59.09 -75.67,-98.19l9.89 -41.64 -20.82 21.45c-28.18,-54.82 -48.83,-117.83 -56.11,-180.07z"/>
   <path class="fil13" d="M3005.08 10790.93c-52.2,96.58 -125.64,181.77 -217.38,218.83 5.09,17.89 11.34,31.3 18.45,40.88l32.38 -41.11 -18.71 54.32c24.05,15.34 54.36,-1.08 83.54,-34.67l6.85 -52.24 7.85 33.71c16.64,-22.7 32.46,-50.36 46.03,-80.12l-5.92 -22.53 12.58 7.32c17.17,-40.89 29.8,-84.7 34.33,-124.39z"/>
  </g>
  <g id="trees.cdr_3">
   <polygon class="fil11" points="3998.74,10070.63 4000.23,10070.42 3945.45,11240.89 3882.2,11249.95 "/>
   <path class="fil11" d="M3997.63 10103.83c-16.8,45.37 -44.11,87.74 -83.28,111.31 3.63,7.14 7.45,12.28 11.39,15.73l11.79 -20.19 -4.59 24.6c12.1,4.43 24.73,-5.13 35.6,-21.85l-0.67 -22.71 6.04 13.6c5.94,-11.04 11.15,-24.11 15.17,-37.87l-4.34 -9.03 6.27 2.02c4.86,-18.79 7.44,-38.42 6.62,-55.61z"/>
   <path class="fil11" d="M3992.44 10178.7c14.29,56.63 43.86,104.92 93.74,122.29 -6.49,11.38 -12.87,20.07 -19.05,26.43l-12.38 -23.49 1.45 32.5c-17.76,10.96 -33.46,2.63 -45.25,-16.4l5.5 -31.92 -11.15 21.34c-6.06,-13.04 -10.7,-29.2 -13.54,-46.81l7.87 -14.3 -9.15 5.29c-3,-24.28 -2.64,-50.63 1.96,-74.93z"/>
   <path class="fil11" d="M3981.87 10323.46c-38.12,70.52 -91.74,132.74 -158.74,159.79 3.73,13.07 8.29,22.86 13.47,29.86l23.65 -30.02 -13.66 39.67c17.56,11.19 39.69,-0.79 61,-25.33l5.01 -38.14 5.73 24.61c12.15,-16.57 23.7,-36.77 33.61,-58.5l-4.32 -16.45 9.18 5.34c12.54,-29.86 21.77,-61.85 25.07,-90.83z"/>
   <path class="fil11" d="M3985.69 10283.06c16.92,67.03 51.92,124.2 110.98,144.77 -7.69,13.48 -15.23,23.76 -22.56,31.29l-14.65 -27.81 1.71 38.48c-21.02,12.96 -39.6,3.11 -53.57,-19.42l6.52 -37.79 -13.2 25.27c-7.18,-15.44 -12.66,-34.58 -16.03,-55.42l9.31 -16.94 -10.83 6.27c-3.55,-28.74 -3.13,-59.94 2.32,-88.7z"/>
   <path class="fil11" d="M3989.13 10214.94c-13.54,36.57 -35.56,70.72 -67.13,89.72 2.93,5.75 6.01,9.89 9.19,12.67l9.5 -16.27 -3.7 19.83c9.75,3.57 19.93,-4.13 28.69,-17.62l-0.54 -18.29 4.87 10.95c4.78,-8.89 8.98,-19.43 12.23,-30.52l-3.5 -7.28 5.05 1.63c3.92,-15.14 6,-30.97 5.34,-44.82z"/>
   <path class="fil11" d="M3971.1 10473.55c-46.08,85.25 -110.91,160.46 -191.89,193.17 4.5,15.79 10.01,27.63 16.28,36.09l28.59 -36.3 -16.52 47.96c21.24,13.54 47.99,-0.95 73.75,-30.61l6.05 -46.11 6.93 29.75c14.68,-20.03 28.65,-44.45 40.62,-70.72l-5.21 -19.89 11.09 6.46c15.16,-36.1 26.31,-74.76 30.31,-109.8z"/>
   <path class="fil11" d="M3975.72 10424.71c20.45,81.04 62.76,150.15 134.15,175.01 -9.29,16.29 -18.41,28.72 -27.27,37.83l-17.7 -33.62 2.06 46.51c-25.41,15.68 -47.88,3.76 -64.76,-23.47l7.89 -45.69 -15.97 30.55c-8.67,-18.66 -15.3,-41.8 -19.37,-66.99l11.25 -20.47 -13.09 7.57c-4.29,-34.74 -3.78,-72.46 2.81,-107.23z"/>
   <path class="fil11" d="M3960.13 10584.6c35.98,87.45 96.19,157.79 184.56,173.53 -8.69,19.86 -17.73,35.36 -26.93,47.09l-25.88 -34.71 9.17 51.83c-27.92,21.92 -56.32,12.38 -80.29,-15.3l2.77 -52.61 -14.55 37c-13,-19.47 -24.21,-44.3 -32.68,-71.87l10.42 -24.89 -14.46 10.73c-10.11,-38.25 -14.94,-80.66 -12.13,-120.8z"/>
   <path class="fil11" d="M3959.65 10671.15c-56.79,114.1 -139,216.24 -244.9,263.92 6.8,20.32 14.75,35.44 23.52,46.1l36.09 -49.13 -19.45 63.6c28.92,16.35 63.71,-4.2 96.39,-44.49l5.64 -60.55 10.76 38.4c18.46,-27.05 35.75,-59.77 50.29,-94.8l-7.97 -25.63 15.08 7.74c18.27,-48.04 31.06,-99.19 34.55,-145.16z"/>
   <path class="fil11" d="M3966.26 10587.09c-38.12,70.52 -91.74,132.74 -158.74,159.8 3.73,13.06 8.29,22.85 13.48,29.85l23.64 -30.02 -13.66 39.67c17.57,11.19 39.7,-0.79 61,-25.32l5.01 -38.15 5.73 24.62c12.15,-16.58 23.7,-36.78 33.61,-58.51l-4.32 -16.45 9.18 5.34c12.54,-29.86 21.77,-61.85 25.07,-90.83z"/>
   <path class="fil11" d="M3954.96 10758.88c14.29,56.63 43.85,104.92 93.74,122.29 -6.5,11.38 -12.87,20.07 -19.06,26.43l-12.37 -23.49 1.44 32.5c-17.75,10.96 -33.45,2.63 -45.25,-16.4l5.51 -31.92 -11.15 21.35c-6.07,-13.05 -10.7,-29.21 -13.54,-46.81l7.86 -14.31 -9.15 5.29c-3,-24.28 -2.64,-50.63 1.97,-74.93z"/>
   <path class="fil11" d="M3925.27 10875.58c62.65,88.21 150.98,151.14 261.58,146 -6.22,24.36 -13.81,43.95 -22.42,59.38l-38.94 -32.03 22.39 55.41c-29.1,31.59 -65.62,28.24 -100.72,3.55l-8.08 -59.34 -9.6 44.96c-20,-18.35 -38.99,-43.14 -55.26,-71.69l7.23 -30.42 -15.21 15.67c-20.57,-40.03 -35.65,-86.04 -40.97,-131.49z"/>
   <path class="fil11" d="M3943.02 10938.95c-38.12,70.52 -91.75,132.74 -158.74,159.79 3.72,13.07 8.28,22.86 13.47,29.86l23.65 -30.02 -13.67 39.67c17.57,11.19 39.7,-0.79 61.01,-25.33l5 -38.14 5.74 24.61c12.14,-16.57 23.7,-36.77 33.6,-58.5l-4.31 -16.45 9.18 5.34c12.54,-29.86 21.76,-61.85 25.07,-90.83z"/>
  </g>
  <g id="trees.cdr_4">
   <polygon class="fil11" points="4401.17,9714.04 4403.11,9713.76 4332.14,11230.11 4250.2,11241.85 "/>
   <path class="fil11" d="M4399.74 9757.05c-21.76,58.78 -57.15,113.67 -107.89,144.21 4.7,9.24 9.66,15.9 14.76,20.37l15.27 -26.16 -5.94 31.88c15.67,5.73 32.04,-6.65 46.12,-28.32l-0.87 -29.41 7.82 17.62c7.69,-14.3 14.44,-31.24 19.65,-49.07l-5.62 -11.69 8.13 2.61c6.3,-24.34 9.63,-49.77 8.57,-72.04z"/>
   <path class="fil11" d="M4393.02 9854.05c18.51,73.35 56.81,135.91 121.44,158.42 -8.42,14.75 -16.67,26 -24.69,34.25l-16.03 -30.44 1.87 42.11c-23,14.19 -43.34,3.4 -58.62,-21.25l7.14 -41.36 -14.45 27.66c-7.86,-16.9 -13.86,-37.84 -17.54,-60.65l10.19 -18.53 -11.85 6.85c-3.89,-31.44 -3.43,-65.59 2.54,-97.06z"/>
   <path class="fil11" d="M4379.33 10041.58c-49.39,91.36 -118.86,171.96 -205.65,207.02 4.82,16.92 10.73,29.61 17.45,38.67l30.64 -38.89 -17.71 51.39c22.76,14.5 51.43,-1.02 79.04,-32.81l6.48 -49.41 7.43 31.89c15.73,-21.47 30.71,-47.64 43.54,-75.8l-5.6 -21.31 11.9 6.92c16.25,-38.68 28.19,-80.12 32.48,-117.67z"/>
   <path class="fil11" d="M4384.28 9989.24c21.92,86.84 67.26,160.91 143.77,187.55 -9.96,17.46 -19.74,30.78 -29.23,40.54l-18.97 -36.03 2.21 49.85c-27.23,16.8 -51.31,4.03 -69.4,-25.15l8.45 -48.97 -17.11 32.74c-9.3,-20 -16.4,-44.79 -20.76,-71.79l12.06 -21.94 -14.03 8.11c-4.6,-37.23 -4.06,-77.65 3.01,-114.91z"/>
   <path class="fil11" d="M4388.73 9900.99c-17.54,47.38 -46.06,91.62 -86.97,116.23 3.79,7.45 7.79,12.82 11.9,16.42l12.31 -21.08 -4.79 25.69c12.63,4.62 25.82,-5.35 37.17,-22.82l-0.7 -23.7 6.3 14.19c6.21,-11.52 11.65,-25.17 15.85,-39.54l-4.53 -9.43 6.55 2.1c5.07,-19.61 7.76,-40.11 6.91,-58.06z"/>
   <path class="fil11" d="M4365.37 10236.03c-59.7,110.44 -143.68,207.87 -248.59,250.24 5.83,20.46 12.97,35.8 21.09,46.76l37.03 -47.02 -21.39 62.12c27.51,17.54 62.16,-1.23 95.53,-39.65l7.84 -59.74 8.98 38.55c19.02,-25.95 37.12,-57.59 52.63,-91.62l-6.76 -25.76 14.38 8.36c19.64,-46.76 34.08,-96.86 39.26,-142.24z"/>
   <path class="fil11" d="M4371.35 10172.75c26.5,104.98 81.31,194.51 173.8,226.72 -12.04,21.11 -23.86,37.21 -35.33,49.01l-22.94 -43.55 2.68 60.25c-32.92,20.31 -62.03,4.88 -83.89,-30.4l10.21 -59.19 -20.68 39.58c-11.24,-24.18 -19.83,-54.15 -25.1,-86.79l14.58 -26.52 -16.96 9.81c-5.57,-45.01 -4.9,-93.87 3.63,-138.92z"/>
   <path class="fil11" d="M4351.16 10379.89c46.61,113.28 124.62,204.41 239.09,224.8 -11.25,25.73 -22.96,45.81 -34.88,61.01l-33.53 -44.97 11.87 67.15c-36.16,28.4 -72.95,16.04 -104.01,-19.82l3.59 -68.15 -18.85 47.92c-16.83,-25.21 -31.36,-57.38 -42.33,-93.1l13.5 -32.25 -18.73 13.9c-13.1,-49.55 -19.36,-104.49 -15.72,-156.49z"/>
   <path class="fil11" d="M4350.53 10492.02c-73.56,147.81 -180.07,280.13 -317.26,341.9 8.81,26.33 19.1,45.91 30.47,59.72l46.75 -63.65 -25.19 82.4c37.47,21.19 82.54,-5.45 124.87,-57.64l7.3 -78.44 13.94 49.75c23.93,-35.04 46.32,-77.44 65.16,-122.81l-10.33 -33.21 19.54 10.03c23.66,-62.24 40.24,-128.5 44.75,-188.05z"/>
   <path class="fil11" d="M4359.11 10383.12c-49.39,91.36 -118.86,171.96 -205.65,207.01 4.82,16.92 10.73,29.61 17.45,38.68l30.63 -38.9 -17.7 51.39c22.76,14.51 51.43,-1.02 79.03,-32.8l6.49 -49.42 7.42 31.89c15.74,-21.47 30.71,-47.64 43.55,-75.79l-5.6 -21.31 11.9 6.91c16.24,-38.68 28.19,-80.12 32.48,-117.66z"/>
   <path class="fil11" d="M4344.46 10605.67c18.51,73.36 56.81,135.92 121.44,158.43 -8.42,14.74 -16.67,25.99 -24.69,34.24l-16.03 -30.43 1.87 42.1c-23,14.19 -43.34,3.41 -58.62,-21.24l7.14 -41.36 -14.45 27.65c-7.86,-16.9 -13.86,-37.84 -17.54,-60.64l10.19 -18.54 -11.86 6.86c-3.88,-31.45 -3.42,-65.59 2.55,-97.07z"/>
   <path class="fil11" d="M4306 10756.85c81.16,114.27 195.59,195.8 338.88,189.15 -8.06,31.56 -17.9,56.94 -29.05,76.93l-50.44 -41.5 28.99 71.78c-37.69,40.92 -85.01,36.59 -130.47,4.6l-10.47 -76.87 -12.44 58.25c-25.9,-23.78 -50.52,-55.9 -71.58,-92.89l9.36 -39.4 -19.7 20.29c-26.66,-51.85 -46.19,-111.46 -53.08,-170.34z"/>
   <path class="fil11" d="M4328.99 10838.95c-49.38,91.36 -118.86,171.96 -205.65,207.01 4.83,16.92 10.74,29.61 17.46,38.68l30.63 -38.9 -17.7 51.4c22.76,14.5 51.43,-1.03 79.03,-32.81l6.48 -49.42 7.43 31.89c15.74,-21.47 30.71,-47.64 43.54,-75.79l-5.59 -21.31 11.89 6.92c16.25,-38.69 28.2,-80.13 32.48,-117.67z"/>
  </g>
  <g>
   <path class="fil38" d="M14827.1 9867.37c273.56,0 448.17,232.76 389.99,519.89 -58.18,287.12 -327.1,519.89 -600.66,519.89 -273.57,0 -448.17,-232.77 -389.99,-519.89 58.17,-287.13 327.1,-519.89 600.66,-519.89z"/>
   <path class="fil38" d="M14327.44 9806.06c172.3,0 282.27,146.6 245.63,327.44 -36.64,180.84 -206.02,327.44 -378.31,327.44 -172.3,0 -282.27,-146.6 -245.63,-327.44 36.65,-180.84 206.02,-327.44 378.31,-327.44z"/>
  </g>
  <g>
   <path class="fil38" d="M4741 13361.25c140.07,193.62 62.1,463.64 -174.15,603.1 -236.24,139.46 -541.31,95.56 -681.38,-98.06 -140.07,-193.63 -62.1,-463.64 174.15,-603.11 236.24,-139.46 541.31,-95.55 681.38,98.07z"/>
   <path class="fil38" d="M4529.24 12969.03c88.22,121.95 39.12,292.01 -109.68,379.85 -148.79,87.83 -340.92,60.18 -429.14,-61.77 -88.22,-121.94 -39.12,-292 109.68,-379.84 148.79,-87.84 340.93,-60.18 429.14,61.76z"/>
  </g>
  <path class="fil38" d="M6117.18 9431.76c143.37,0 234.89,121.99 204.39,272.48 -30.49,150.48 -171.43,272.48 -314.81,272.48 -143.38,0 -234.89,-122 -204.4,-272.48 30.49,-150.49 171.44,-272.48 314.82,-272.48z"/>
  <path class="fil38" d="M16091.34 13743.63c187.28,0 306.82,159.35 266.99,355.92 -39.83,196.57 -223.94,355.93 -411.22,355.93 -187.29,0 -306.82,-159.36 -266.99,-355.93 39.83,-196.57 223.94,-355.92 411.22,-355.92z"/>
 </g>
</svg>
